<?xml version="1.0" encoding="utf-8"?>
<!-- Generator: Adobe Illustrator 22.0.1, SVG Export Plug-In . SVG Version: 6.00 Build 0)  -->
<svg version="1.1" id="Capa_1" xmlns="http://www.w3.org/2000/svg" xmlns:xlink="http://www.w3.org/1999/xlink" x="0px" y="0px"
	 viewBox="0 0 96.4 73.9" style="enable-background:new 0 0 96.4 73.9;" xml:space="preserve">
<style type="text/css">
	.st0{fill:#F2B591;}
	.st1{fill:#F26E50;}
	.st2{opacity:0.31;fill:none;stroke:#F26E50;stroke-width:2;stroke-miterlimit:10;}
</style>
<path class="st0" d="M46.2,45.3c-1.2,0-2.2-0.2-3.1-0.7c-0.7-0.3-1.2-1-1.3-1.8c-0.1-0.8,0.1-1.5,0.7-2.1c0.1-0.1,2-2,4.3-6.3
	c-2.1-2.1-5.5-6.6-5.5-13.7c0-5.2,2.7-10.5,7.3-14.4c3.5-3,9.8-6.5,19.6-6.5c9.6,0,15.6,3.9,18.9,7.1c3.9,3.9,6.3,9.2,6.3,14.1
	c0,4.7-2.5,10-6.8,14.1c-4.7,4.5-10.8,7-17.4,7.2c-6.5,0.1-10.1-0.6-11.9-1.2c-1,0.6-2.5,1.4-4.3,2.2C50.5,44.7,48.2,45.3,46.2,45.3
	z M58.3,36.5L58.3,36.5L58.3,36.5z"/>
<path class="st1" d="M31.4,50.1c-2.9,0-4.3,1.6-9,1.6s-6.1-1.6-9-1.6C6,50.1,0,56.1,0,63.6v2.6c0,2.7,2.2,4.8,4.8,4.8h35.3
	c2.7,0,4.8-2.2,4.8-4.8v-2.6C44.9,56.1,38.9,50.1,31.4,50.1z M22.5,48.5c8,0,14.4-6.5,14.4-14.4s-6.5-14.4-14.4-14.4S8,26.1,8,34
	S14.5,48.5,22.5,48.5z"/>
<path class="st2" d="M48.2,47.3c-1.2,0-2.2-0.2-3.1-0.7c-0.7-0.3-1.2-1-1.3-1.8c-0.1-0.8,0.1-1.5,0.7-2.1c0.1-0.1,2-2,4.3-6.3
	c-2.1-2.1-5.5-6.6-5.5-13.7c0-5.2,2.7-10.5,7.3-14.4c3.5-3,9.8-6.5,19.6-6.5c9.6,0,15.6,3.9,18.9,7.1c3.9,3.9,6.3,9.2,6.3,14.1
	c0,4.7-2.5,10-6.8,14.1c-4.7,4.5-10.8,7-17.4,7.2c-6.5,0.1-10.1-0.6-11.9-1.2c-1,0.6-2.5,1.4-4.3,2.2C52.5,46.7,50.2,47.3,48.2,47.3
	z M60.3,38.5L60.3,38.5L60.3,38.5z"/>
<path class="st2" d="M33.4,52.1c-2.9,0-4.3,1.6-9,1.6s-6.1-1.6-9-1.6C8,52.1,2,58.1,2,65.6v2.6c0,2.7,2.2,4.8,4.8,4.8h35.3
	c2.7,0,4.8-2.2,4.8-4.8v-2.6C46.9,58.1,40.9,52.1,33.4,52.1z M24.5,50.5c8,0,14.4-6.5,14.4-14.4s-6.5-14.4-14.4-14.4S10,28.1,10,36
	S16.5,50.5,24.5,50.5z"/>
</svg>
