<?xml version="1.0" encoding="utf-8"?>
<!-- Generator: Adobe Illustrator 22.0.1, SVG Export Plug-In . SVG Version: 6.00 Build 0)  -->
<svg version="1.1" id="Capa_1" xmlns="http://www.w3.org/2000/svg" xmlns:xlink="http://www.w3.org/1999/xlink" x="0px" y="0px"
	 viewBox="0 0 455.2 59.4" style="enable-background:new 0 0 455.2 59.4;" xml:space="preserve">
<style type="text/css">
	.st0{fill:#FFFFFF;}
	.st1{font-family:'Gotham-Bold';}
	.st2{font-size:20.5439px;}
	.st3{font-size:5.6488px;}
	.st4{font-family:'Gotham-Black';}
	.st5{font-size:10.4944px;}
</style>
<g>
	<g>
		<g>
			<path class="st0" d="M79.1,32.9c0.3,0.5,0.7,0.7,1.3,0.7c0.8,0,1.4-0.8,1.4-0.8l13.7-17.5c1.1-1.2,2.2-0.2,2.2-0.2
				c1.1,1.1,0.3,2.2,0.3,2.2L95,21.1l0,0c-0.3,0.3-0.4,0.6-0.4,1c0,0.4,0.1,0.7,0.4,1l0,0l3.1,3.9l9.7-12.3l-3.9-4.9l-0.7-0.9
				c-0.6-0.9-2-1.1-2-1.1h-5.8c-1.5,0-2.4,1.1-2.4,1.1L76.6,29.7L79.1,32.9z"/>
			<path class="st0" d="M78.4,22.2l-3.9-5c-0.8-1.3,0.4-2.2,0.4-2.2c1.5-0.8,2.3,0.5,2.3,0.5l3.2,4.1l3.8-4.9l-4.4-5.7
				c-1-1.5-2.6-1.3-2.6-1.3h-5.2c-1.7,0-2.4,1-2.4,1l-4.6,5.9l9.7,12.4L78.4,22.2z"/>
			<path class="st0" d="M93.4,26.5c0,0-0.4-0.7-1.3-0.7c-0.9,0-1.3,0.6-1.3,0.6L77,44.1c-1.1,1.2-2.3,0.2-2.3,0.2
				c-1.1-1.1-0.2-2.2-0.2-2.2l3.1-4l0,0c0.3-0.3,0.4-0.6,0.4-1c0-0.4-0.1-0.7-0.4-1l0,0l-3.1-3.9l-9.7,12.5l5.4,6.9l8.5,0L96,29.7
				L93.4,26.5z"/>
			<path class="st0" d="M94.1,37.1l3.9,5c0.9,1.3-0.2,2.2-0.2,2.2c-1.5,1-2.4-0.5-2.4-0.5l-3.3-4.2l-3.8,4.9l5.5,7l8.5,0l5.4-7
				L98,32.3L94.1,37.1z"/>
			<path class="st0" d="M107.6,25.8c-2.2,0-3.9,1.7-3.9,3.9c0,2.1,1.8,3.9,3.9,3.9c2.2,0,3.9-1.7,3.9-3.9
				C111.6,27.6,109.8,25.8,107.6,25.8z M107.6,31.8c-1.1,0-2.1-0.9-2.1-2.1s0.9-2.1,2.1-2.1s2.1,0.9,2.1,2.1S108.8,31.8,107.6,31.8z
				"/>
			<path class="st0" d="M86.3,7.8c2.2,0,3.9-1.7,3.9-3.9c0-2.1-1.8-3.9-3.9-3.9c-2.2,0-3.9,1.7-3.9,3.9C82.3,6,84.1,7.8,86.3,7.8z
				 M86.3,1.8c1.1,0,2.1,0.9,2.1,2.1C88.3,5,87.4,6,86.3,6c-1.1,0-2.1-0.9-2.1-2.1C84.2,2.7,85.1,1.8,86.3,1.8z M86.3,7.8
				c2.2,0,3.9-1.7,3.9-3.9c0-2.1-1.8-3.9-3.9-3.9c-2.2,0-3.9,1.7-3.9,3.9C82.3,6,84.1,7.8,86.3,7.8 M86.3,1.8c1.1,0,2.1,0.9,2.1,2.1
				C88.3,5,87.4,6,86.3,6c-1.1,0-2.1-0.9-2.1-2.1C84.2,2.7,85.1,1.8,86.3,1.8z"/>
			<path class="st0" d="M68.8,29.7c0-2.1-1.8-3.9-3.9-3.9c-2.2,0-3.9,1.7-3.9,3.9s1.8,3.9,3.9,3.9C67,33.6,68.8,31.8,68.8,29.7z
				 M62.8,29.7c0-1.2,0.9-2.1,2.1-2.1c1.1,0,2.1,0.9,2.1,2.1s-0.9,2.1-2.1,2.1C63.7,31.8,62.8,30.9,62.8,29.7z"/>
			<path class="st0" d="M86.3,51.7c-2.2,0-3.9,1.7-3.9,3.9c0,2.1,1.8,3.9,3.9,3.9c2.2,0,3.9-1.7,3.9-3.9
				C90.2,53.4,88.4,51.7,86.3,51.7z M86.3,57.6c-1.1,0-2.1-0.9-2.1-2.1s0.9-2.1,2.1-2.1c1.1,0,2.1,0.9,2.1,2.1S87.4,57.6,86.3,57.6z
				"/>
		</g>
		<g>
			<path class="st0" d="M44.1,5v29c0,3.5-1.1,6.8-3.3,9.7C39,46,36.5,48.1,33.4,50c-4.8,2.8-9.7,4.1-10.8,4.4
				c-1.1-0.3-5.9-1.6-10.7-4.4c-3.2-1.9-5.7-4-7.4-6.3c-2.2-2.9-3.3-6.2-3.3-9.7V5H44.1 M45.2,3.9H0c0,0,0,17.5,0,30.1
				c0,16.5,22.6,21.5,22.6,21.5h0c0,0,22.6-5,22.6-21.5C45.2,21.4,45.2,3.9,45.2,3.9L45.2,3.9z"/>
			<g>
				<path class="st0" d="M28.1,13.5v-2.8h-2.8v2.6h-1.1v-2.6h-2.9v2.6h-1.1v-2.6h-2.9v2.8l1.4,2.4c0,0.1,0.1,0.2,0.1,0.3l0,12.7H20
					l0-4.6c0-1.1,1.2-2.1,2.6-2.1c1.3,0,2.6,1,2.6,2l0,4.6h1.4l0-4.8c0,0,0,0,0-0.1v-2.4c0,0,0,0,0,0l0-1.7c0,0,0,0,0,0v-0.8l0-2.9
					c0-0.1,0-0.2,0.1-0.3L28.1,13.5z"/>
				<path class="st0" d="M17.6,29.2l0-4.2l-0.5,0.3c-0.2,0.1-0.4,0.1-0.6,0l-0.6-0.4c0,0,0,0,0,0.1l0,1.6c0,0.2-0.1,0.3-0.2,0.4
					c0.1,0,0.1,0.1,0.2,0.1c0.7,0.6,0.8,1.4,0.6,2.1H17.6z"/>
				<path class="st0" d="M22.6,23.4c-0.9,0-1.5,0.6-1.5,0.9l0,4.6h2.9l0-4.6C24,24,23.4,23.4,22.6,23.4z"/>
				<path class="st0" d="M5.7,29.2c-0.2-0.4-0.3-0.8-0.4-1.3c-0.1-0.9-0.1-1.7-0.1-1.7c0-0.2,0.2-0.4,0.4-0.5l1.2-0.4l-1.4-1
					c-0.1-0.1-0.2-0.3-0.2-0.5v-1.5c0-0.2,0.1-0.4,0.3-0.5L6,21.6V21l-0.5-0.2c-0.2-0.1-0.3-0.3-0.3-0.5l0-1.9
					c0-0.3,0.2-0.6,0.6-0.6l1.7,0c0-0.5,0-1.1,0.1-1.6c0.1-0.7,0.5-1.4,0.7-1.8l-0.1-0.6c0-0.2,0-0.3,0.1-0.4
					c0.1-0.1,0.3-0.2,0.4-0.2h0.9c0.1,0,0.2,0,0.3,0.1l2.3,1.4h1c0.2,0,0.3,0.1,0.4,0.2s0.2,0.3,0.2,0.4l-0.1,1.8
					c0,0.2-0.1,0.3-0.2,0.4l0.7,0c0.2,0,0.3,0.1,0.4,0.2l0.3,0.3l0.2-0.2l0.4-0.8c0.1-0.2,0.3-0.3,0.5-0.3h1.5l0-0.3l-1.4-2.4
					c0-0.1-0.1-0.2-0.1-0.3v-3.5c0-0.3,0.2-0.6,0.6-0.6h3.4h1.1h2.9h1.1h3.4c0.3,0,0.6,0.2,0.6,0.6v3.5c0,0.1,0,0.2-0.1,0.3
					l-1.4,2.4l0,0.3h1.5c0.2,0,0.4,0.1,0.5,0.3l0.4,0.8l0.2,0.2l0.3-0.3c0.1-0.1,0.2-0.2,0.4-0.2l0.7,0c-0.1-0.1-0.2-0.2-0.2-0.4
					l-0.1-1.8c0-0.2,0-0.3,0.2-0.4c0.1-0.1,0.3-0.2,0.4-0.2h1l2.3-1.4c0.1-0.1,0.2-0.1,0.3-0.1h0.9c0.2,0,0.3,0.1,0.4,0.2
					c0.1,0.1,0.2,0.3,0.1,0.4L37,14.5c0.2,0.3,0.6,1.1,0.7,1.8c0.1,0.5,0.1,1.1,0.1,1.6l1.7,0c0.3,0,0.6,0.3,0.6,0.6l0,1.9
					c0,0.2-0.1,0.4-0.3,0.5L39.2,21v0.5l0.5,0.3c0.2,0.1,0.3,0.3,0.3,0.5v1.5c0,0.2-0.1,0.3-0.2,0.5l-1.4,1l1.2,0.4
					c0.2,0.1,0.4,0.3,0.4,0.5c0,0,0,0.8-0.1,1.7c-0.1,0.5-0.2,0.9-0.4,1.3h2c0,0,0,0,0,0V7.7h-38v21.5H5.7z"/>
				<path class="st0" d="M29.4,27.1c0.1,0,0.1-0.1,0.2-0.1c-0.1-0.1-0.2-0.3-0.2-0.4l0-1.6c0,0,0,0,0-0.1l-0.6,0.4
					c-0.2,0.1-0.4,0.1-0.6,0L27.7,25l0,4.2h1.1C28.6,28.5,28.7,27.6,29.4,27.1z"/>
				<path class="st0" d="M36.8,40.7c-0.3,0-0.6-0.2-0.6-0.6v-3.6c0-0.3-0.2-0.6-0.4-0.9c-0.2-0.2-0.6-0.5-1.1-0.4
					c-0.9,0-1.4,0.7-1.4,1.3v3.6c0,0.1-0.1,0.3-0.2,0.4c-0.1,0.1-0.2,0.2-0.4,0.2l-3.3,0c-0.3,0-0.6-0.2-0.6-0.6v-3.6
					c0-0.3-0.2-0.6-0.4-0.9c-0.2-0.2-0.6-0.5-1.1-0.4c-0.4,0-0.7,0.1-1,0.4L29,49.4c3.8-1.7,8.4-4.5,10.8-8.7L36.8,40.7z"/>
				<path class="st0" d="M28,49.8l-3.8-19.5h-3.1l-3.8,19.5c0,0,0,0.1,0,0.1c2.7,1.1,4.8,1.6,5.4,1.8C23.2,51.5,25.4,50.9,28,49.8
					C28,49.8,28,49.8,28,49.8z"/>
				<path class="st0" d="M18.9,35.6c-0.3-0.2-0.6-0.4-0.9-0.4c0,0,0,0,0,0c-0.5,0-0.9,0.2-1.1,0.4c-0.3,0.2-0.4,0.6-0.4,0.9v3.6
					c0,0.3-0.2,0.6-0.6,0.6l-3.3,0c-0.1,0-0.3-0.1-0.4-0.2C12,40.4,12,40.3,12,40.1v-3.6c-0.1-0.7-0.6-1.3-1.4-1.3c0,0,0,0,0,0
					c-0.5,0-0.9,0.2-1.1,0.4C9.2,35.9,9,36.2,9,36.5v3.6c0,0.3-0.2,0.6-0.6,0.6l-3,0c2.4,4.3,7,7,10.8,8.7L18.9,35.6z"/>
				<path class="st0" d="M41.6,30.3H25.3l0.8,4.1c0.4-0.2,0.8-0.3,1.2-0.3c0.7,0,1.4,0.3,1.9,0.8c0.5,0.5,0.7,1.1,0.7,1.6v3.1l2.2,0
					v-3.1c0,0,0,0,0-0.1c0.1-1.3,1.2-2.3,2.5-2.4c0.7,0,1.4,0.3,1.9,0.8c0.5,0.5,0.7,1.1,0.7,1.6v3.1l3,0c0.8-1.7,1.2-3.5,1.2-5.7
					L41.6,30.3C41.6,30.3,41.6,30.3,41.6,30.3z"/>
				<path class="st0" d="M7.9,39.6v-3.1c0-0.6,0.3-1.2,0.7-1.6c0.5-0.5,1.2-0.8,1.9-0.8c1.3,0,2.4,1,2.5,2.4c0,0,0,0,0,0.1v3.1
					l2.2,0v-3.1c0-0.6,0.3-1.2,0.7-1.6c0.5-0.5,1.2-0.8,1.9-0.8c0.4,0,0.8,0.1,1.2,0.3l0.8-4.1H3.6v3.6c0,2.1,0.5,4,1.2,5.7
					L7.9,39.6z"/>
				<path class="st0" d="M9.2,28h0.9c0.1,0.1,0.1,0.2,0.1,0.4c0,0.1,0,0.1,0,0.2c0,0.2,0,0.4-0.1,0.5H7c-0.5-0.3-0.7-1.5-0.7-2.6
					l1.4-0.4c0.2-0.1,0.4-0.3,0.4-0.5v-0.5c0-0.2-0.1-0.3-0.2-0.5l-1.5-1.1v-0.9l0.5-0.3c0.2-0.1,0.3-0.3,0.3-0.5v-1.2
					c0-0.2-0.1-0.4-0.3-0.5L6.3,20l0-0.9l1.5,0l0.7,1.1l0,1.6L8,23.2c-0.1,0.2,0,0.4,0.1,0.5C8.2,23.9,8.3,24,8.5,24h0.4
					c0.3,0,0.5-0.2,0.5-0.5c0-0.2,0.2-1,0.3-1.3c0.1-0.2,0.5-0.8,0.7-1.1c0.2-0.2,0.2-0.5,0-0.7l-1.9-2.2c0-0.3-0.1-1.1,0-1.7
					c0.1-0.6,0.5-1.4,0.7-1.6c0.1-0.1,0.1-0.2,0.1-0.4l0-0.2h0.1l2.3,1.4c0.1,0.1,0.2,0.1,0.3,0.1h0.6l0,0.8L11.9,17
					c-0.2,0.1-0.4,0.3-0.4,0.5l0,0.6c0,0.3,0.2,0.6,0.6,0.6l1.9,0l0.5,0.5c0.2,0.2,0.5,0.2,0.7,0.1c0,0,0.9-0.7,0.9-0.8l0.3-0.7h1.1
					v1.3l0,0.7c0,0-2,0.7-2.2,0.8c-0.1,0.1-0.2,0.7-0.2,0.8c0,0.2,0,0.2,0.2,0.4c0,0,0.6,0.5,0.8,0.5l0.6-0.6l0.8,0.1l0,1.9
					l-0.7,0.4l-2.3-1.6c-0.2-0.2-0.6-0.1-0.8,0.1l-0.4,0.5c-0.2,0.2-0.2,0.6,0.1,0.7l1.3,1.3l0,1l-1.3,0.6c-0.2,0.1-0.3,0.3-0.3,0.5
					v0.2c0,0.3,0.2,0.6,0.6,0.6h1.6c0.3,0.3,0.2,0.8,0.1,1.1h-3.7c-0.1-0.1-0.2-0.4-0.2-0.6c0-0.1,0-0.1,0-0.2c0-0.4,0-0.7,0.1-0.9
					l0.9-1.1c0.1-0.1,0.1-0.2,0.1-0.3l0-0.5c0-0.2-0.1-0.4-0.2-0.5s-0.4-0.1-0.5-0.1l-1.4,0.6c-0.2,0.1-0.3,0.2-0.3,0.4l-0.1,0.6
					L9,26.7c-0.2,0.1-0.4,0.3-0.4,0.5v0.2C8.6,27.8,8.9,28,9.2,28z"/>
				<path class="st0" d="M36,28h-0.9c-0.1,0.1-0.1,0.2-0.1,0.4c0,0.1,0,0.1,0,0.2c0,0.2,0,0.4,0.1,0.5h3.2c0.5-0.3,0.7-1.5,0.7-2.6
					l-1.4-0.4c-0.2-0.1-0.4-0.3-0.4-0.5v-0.5c0-0.2,0.1-0.3,0.2-0.5l1.5-1.1v-0.9l-0.5-0.3c-0.2-0.1-0.3-0.3-0.3-0.5v-1.2
					c0-0.2,0.1-0.4,0.3-0.5l0.5-0.2l0-0.9l-1.5,0l-0.7,1.1l0,1.6l0.5,1.5c0.1,0.2,0,0.4-0.1,0.5c-0.1,0.1-0.3,0.2-0.4,0.2h-0.4
					c-0.3,0-0.5-0.2-0.5-0.5c0-0.2-0.2-1-0.3-1.3c-0.1-0.2-0.5-0.8-0.7-1.1c-0.2-0.2-0.2-0.5,0-0.7l1.9-2.2c0-0.3,0.1-1.1,0-1.7
					c-0.1-0.6-0.5-1.4-0.7-1.6c-0.1-0.1-0.1-0.2-0.1-0.4l0-0.2h-0.1l-2.3,1.4c-0.1,0.1-0.2,0.1-0.3,0.1h-0.6l0,0.8l0.7,0.3
					c0.2,0.1,0.4,0.3,0.4,0.5l0,0.6c0,0.3-0.2,0.6-0.6,0.6l-1.9,0l-0.5,0.5c-0.2,0.2-0.5,0.2-0.7,0.1c0,0-0.9-0.7-0.9-0.8l-0.3-0.7
					h-1.1v1.3l0,0.7c0,0,2,0.7,2.2,0.8c0.1,0.1,0.2,0.7,0.2,0.8c0,0.2,0,0.2-0.2,0.4c0,0-0.6,0.5-0.8,0.5l-0.6-0.6l-0.8,0.1l0,1.9
					l0.7,0.4l2.3-1.6c0.2-0.2,0.6-0.1,0.8,0.1l0.4,0.5c0.2,0.2,0.2,0.6-0.1,0.7l-1.3,1.3l0,1l1.3,0.6c0.2,0.1,0.3,0.3,0.3,0.5v0.2
					c0,0.3-0.2,0.6-0.6,0.6H30c-0.3,0.3-0.2,0.8-0.1,1.1h3.7c0.1-0.1,0.2-0.4,0.2-0.6c0-0.1,0-0.1,0-0.2c0-0.4,0-0.7-0.1-0.9
					l-0.9-1.1c-0.1-0.1-0.1-0.2-0.1-0.3l0-0.5c0-0.2,0.1-0.4,0.2-0.5c0.2-0.1,0.4-0.1,0.5-0.1l1.4,0.6c0.2,0.1,0.3,0.2,0.3,0.4
					l0.1,0.6l0.8,0.2c0.2,0.1,0.4,0.3,0.4,0.5v0.2C36.6,27.8,36.3,28,36,28z"/>
			</g>
		</g>
		<g>
			<g>
				<g>
					<g>
						<path class="st0" d="M123.5,23.1L123.5,23.1c0-2.1,1.6-4,3.9-4c1.3,0,2.1,0.4,2.9,1l-0.6,0.7c-0.6-0.5-1.3-0.9-2.3-0.9
							c-1.7,0-2.9,1.4-2.9,3.2v0c0,1.8,1.2,3.2,3,3.2c0.9,0,1.7-0.3,2.2-0.8v-1.9h-2.3v-0.8h3.2v3.1c-0.7,0.6-1.8,1.2-3.1,1.2
							C125,27.1,123.5,25.3,123.5,23.1z"/>
						<path class="st0" d="M133.3,23.1L133.3,23.1c0-2.1,1.6-4,3.9-4c2.3,0,3.9,1.8,3.9,4v0c0,2.1-1.6,4-3.9,4
							C134.9,27.1,133.3,25.2,133.3,23.1z M140.3,23.1L140.3,23.1c0-1.8-1.3-3.2-3-3.2c-1.8,0-3,1.4-3,3.2v0c0,1.7,1.3,3.2,3,3.2
							C139,26.3,140.3,24.9,140.3,23.1z"/>
						<path class="st0" d="M144.3,19.2h3.3c0.9,0,1.6,0.3,2,0.7c0.3,0.3,0.5,0.7,0.5,1.2v0c0,1-0.6,1.5-1.2,1.8
							c0.9,0.3,1.7,0.8,1.7,1.9v0c0,1.3-1.1,2.1-2.8,2.1h-3.4V19.2z M149.2,21.3c0-0.8-0.6-1.3-1.7-1.3h-2.3v2.7h2.3
							C148.5,22.7,149.2,22.2,149.2,21.3L149.2,21.3z M147.6,23.4h-2.4v2.7h2.6c1.2,0,1.9-0.5,1.9-1.4v0
							C149.6,23.9,148.9,23.4,147.6,23.4z"/>
						<path class="st0" d="M153.6,19.2h0.9v7.7h-0.9V19.2z"/>
						<path class="st0" d="M158,19.2h5.6V20h-4.7v2.6h4.2v0.8h-4.2v2.7h4.8v0.8H158V19.2z"/>
						<path class="st0" d="M166.5,19.2h3.3c0.9,0,1.7,0.3,2.2,0.8c0.4,0.4,0.6,0.9,0.6,1.5v0c0,1.3-0.9,2-2.1,2.2l2.4,3.1h-1.1
							l-2.2-3h-2.2v3h-0.9V19.2z M169.7,23.2c1.2,0,2-0.6,2-1.6v0c0-0.9-0.7-1.5-2-1.5h-2.4v3.1H169.7z"/>
						<path class="st0" d="M175.7,19.2h0.8l4.9,6.2v-6.2h0.8v7.7h-0.7l-5-6.3v6.3h-0.8V19.2z"/>
						<path class="st0" d="M185.4,23.1L185.4,23.1c0-2.1,1.6-4,3.9-4c2.3,0,3.9,1.8,3.9,4v0c0,2.1-1.6,4-3.9,4
							C186.9,27.1,185.4,25.2,185.4,23.1z M192.3,23.1L192.3,23.1c0-1.8-1.3-3.2-3-3.2c-1.8,0-3,1.4-3,3.2v0c0,1.7,1.3,3.2,3,3.2
							C191.1,26.3,192.3,24.9,192.3,23.1z"/>
						<path class="st0" d="M200.3,19.2h2.7c2.4,0,4.1,1.7,4.1,3.8v0c0,2.2-1.7,3.9-4.1,3.9h-2.7V19.2z M201.2,20v6.1h1.8
							c1.9,0,3.2-1.3,3.2-3v0c0-1.7-1.2-3-3.2-3H201.2z"/>
						<path class="st0" d="M209.9,19.2h5.6V20h-4.7v2.6h4.2v0.8h-4.2v2.7h4.8v0.8h-5.6V19.2z"/>
						<path class="st0" d="M222.4,19.2h0.9v6.9h4.3v0.8h-5.2V19.2z"/>
						<path class="st0" d="M233,19.2h0.8l3.5,7.8h-0.9l-0.9-2h-4.2l-0.9,2h-0.9L233,19.2z M235.1,24.1l-1.8-3.9l-1.8,3.9H235.1z"/>
						<path class="st0" d="M123.3,36.3L123.3,36.3c0-2.2,1.7-4,4-4c1.5,0,2.3,0.5,3,1.2l-1.1,1.2c-0.6-0.5-1.2-0.9-2-0.9
							c-1.3,0-2.2,1.1-2.2,2.4v0c0,1.3,0.9,2.4,2.2,2.4c0.9,0,1.4-0.4,2-0.9l1.1,1.1c-0.8,0.8-1.7,1.4-3.2,1.4
							C125,40.3,123.3,38.5,123.3,36.3z"/>
						<path class="st0" d="M131.8,32.4h1.7v7.7h-1.7V32.4z"/>
						<path class="st0" d="M135.5,36.8v-4.4h1.7v4.4c0,1.3,0.6,1.9,1.7,1.9s1.7-0.6,1.7-1.8v-4.4h1.7v4.3c0,2.3-1.3,3.5-3.4,3.5
							C136.7,40.3,135.5,39.1,135.5,36.8z"/>
						<path class="st0" d="M144.1,32.4h3c2.4,0,4.1,1.7,4.1,3.8v0c0,2.2-1.7,3.9-4.1,3.9h-3V32.4z M147.1,38.6
							c1.4,0,2.3-0.9,2.3-2.3v0c0-1.4-0.9-2.3-2.3-2.3h-1.3v4.6H147.1z"/>
						<path class="st0" d="M154.9,32.4h1.6l3.3,7.8H158l-0.7-1.7h-3.3l-0.7,1.7h-1.7L154.9,32.4z M156.7,36.9l-1-2.5l-1,2.5H156.7z"
							/>
						<path class="st0" d="M161,32.4h3c2.4,0,4.1,1.7,4.1,3.8v0c0,2.2-1.7,3.9-4.1,3.9h-3V32.4z M164,38.6c1.4,0,2.3-0.9,2.3-2.3v0
							c0-1.4-0.9-2.3-2.3-2.3h-1.3v4.6H164z"/>
						<path class="st0" d="M173,32.4h3c2.4,0,4.1,1.7,4.1,3.8v0c0,2.2-1.7,3.9-4.1,3.9h-3V32.4z M176.1,38.6c1.4,0,2.3-0.9,2.3-2.3
							v0c0-1.4-0.9-2.3-2.3-2.3h-1.3v4.6H176.1z"/>
						<path class="st0" d="M181.8,32.4h5.8V34h-4.1v1.6h3.6V37h-3.6v1.6h4.2v1.5h-5.9V32.4z"/>
						<path class="st0" d="M192.5,32.4h1.8l2,3.3l2-3.3h1.8v7.7h-1.7v-5l-2.2,3.3h0l-2.1-3.3v5h-1.7V32.4z"/>
						<path class="st0" d="M202.3,32.4h5.8V34h-4.1v1.6h3.6V37h-3.6v1.6h4.2v1.5h-5.9V32.4z M205.5,29.9l1.4,0.6l-1.4,1.3h-1.3
							L205.5,29.9z"/>
						<path class="st0" d="M211.9,36.2l-2.6-3.8h2l1.6,2.5l1.6-2.5h1.9l-2.6,3.8l2.7,3.9h-2l-1.7-2.6l-1.7,2.6h-1.9L211.9,36.2z"/>
						<path class="st0" d="M217.9,32.4h1.7v7.7h-1.7V32.4z"/>
						<path class="st0" d="M221.2,36.3L221.2,36.3c0-2.2,1.7-4,4-4c1.5,0,2.3,0.5,3,1.2l-1.1,1.2c-0.6-0.5-1.2-0.9-2-0.9
							c-1.3,0-2.2,1.1-2.2,2.4v0c0,1.3,0.9,2.4,2.2,2.4c0.9,0,1.4-0.4,2-0.9l1.1,1.1c-0.8,0.8-1.7,1.4-3.2,1.4
							C222.9,40.3,221.2,38.5,221.2,36.3z"/>
						<path class="st0" d="M229.1,36.3L229.1,36.3c0-2.2,1.7-4,4.1-4c2.4,0,4.1,1.8,4.1,4v0c0,2.2-1.7,4-4.1,4
							C230.8,40.3,229.1,38.5,229.1,36.3z M235.5,36.3L235.5,36.3c0-1.3-1-2.4-2.3-2.4c-1.4,0-2.3,1.1-2.3,2.4v0
							c0,1.3,1,2.4,2.3,2.4C234.6,38.7,235.5,37.6,235.5,36.3z"/>
					</g>
				</g>
			</g>
		</g>
	</g>
	<text transform="matrix(1 0 0 1 258.2127 36.663)" class="st0 st1 st2">SECTEI</text>
	<path class="st0" d="M249.9,29.7"/>
	<path class="st0" d="M249.6,29.7"/>
	<path class="st0" d="M375.1,21.7c-1.1-1.1-2.6-1.6-4.1-1.5l-1.2,0l0-1.3c0-0.1,0-0.2,0-0.2l0-0.5c-0.1-1.2-0.6-2.4-1.5-3.3
		c-2-2-5.4-2-7.4,0c-0.5,0.5-0.9,1.2-1.2,1.9c-0.4,0.8-0.6,1.7-0.6,2.7c0,1.1,0,2.5,0,3.8c0,1.4,0,2.7,0,4c-0.2,0-0.4,0-0.7,0
		c-1,0-1.9,0.2-2.7,0.6c-0.7,0.3-1.3,0.6-1.9,1.2c-2,2-2,5.4,0,7.4c1.1,1.1,2.6,1.6,4.1,1.5l1.2,0l0,1.3c0,0.1,0,0.2,0,0.2l0,0.5
		c0.1,1.2,0.6,2.4,1.5,3.3c2,2,5.4,2,7.4,0c0.5-0.5,0.9-1.2,1.2-1.9c0.4-0.8,0.6-1.7,0.6-2.7c0-2.3,0-5.3,0-7.7c0.2,0,0.4,0,0.7,0
		c1,0,1.9-0.2,2.7-0.6c0.7-0.3,1.3-0.6,1.9-1.2C377.1,27.1,377.1,23.7,375.1,21.7z M369.7,23.7l1.7,0c0.4,0,0.9,0.2,1.2,0.5
		c0.7,0.7,0.7,1.8,0,2.4c-0.7,0.7-1.8,0.7-2.4,0c-0.3-0.3-0.5-0.7-0.5-1.2L369.7,23.7z M365.8,17.4c0.3,0.3,0.5,0.7,0.5,1.2l0,1.7
		l-1.7,0c-0.5,0-0.9-0.2-1.2-0.5c-0.7-0.7-0.7-1.8,0-2.4C364.1,16.7,365.2,16.7,365.8,17.4z M362.7,23.5c0.7,0.3,1.5,0.4,2.3,0.3
		l1.2,0c0,0-0.1,1.1,0,2c0.1,0.5,0.2,1,0.3,1.4c-1.1,0-2.5,0-3.8,0C362.7,26.7,362.7,25.3,362.7,23.5z M359.3,34.4l-1.7,0
		c-0.4,0-0.9-0.2-1.2-0.5c-0.7-0.7-0.7-1.8,0-2.4c0.7-0.7,1.8-0.7,2.4,0c0.3,0.3,0.5,0.7,0.5,1.2L359.3,34.4z M363.2,40.7
		c-0.3-0.3-0.5-0.7-0.5-1.2l0-1.7l1.7,0c0.5,0,0.9,0.2,1.2,0.5c0.7,0.7,0.7,1.8,0,2.4C364.9,41.4,363.8,41.4,363.2,40.7z
		 M366.3,34.6c-0.7-0.3-1.5-0.4-2.3-0.3l-1.2,0c0,0,0.1-1.1,0-2c-0.1-0.5-0.2-1-0.3-1.4c1.1,0,2.5,0,3.8,0
		C366.3,31.4,366.3,32.8,366.3,34.6z"/>
	<text transform="matrix(1 0 0 1 382.0506 35.329)"><tspan x="0" y="0" class="st0 st1 st3">INSTITUTO</tspan><tspan x="0" y="6.8" class="st0 st1 st3">ROSARIO CASTELLANOS</tspan></text>
	<rect x="250.2" y="7.3" class="st0" width="0.7" height="44.9"/>
	<rect x="344.5" y="13.4" class="st0" width="0.5" height="32.7"/>
	<text transform="matrix(1 0 0 1 381.2986 27.9228)" class="st0 st4 st5">IRC</text>
</g>
</svg>
