<?xml version="1.0" encoding="utf-8"?>
<!-- Generator: Adobe Illustrator 22.0.1, SVG Export Plug-In . SVG Version: 6.00 Build 0)  -->
<svg version="1.1" id="Capa_1" xmlns="http://www.w3.org/2000/svg" xmlns:xlink="http://www.w3.org/1999/xlink" x="0px" y="0px"
	 viewBox="0 0 535 60.1" style="enable-background:new 0 0 535 60.1;" xml:space="preserve">
<style type="text/css">
	.st0{fill:#FFFFFF;}
	.st1{font-family:'Gotham-Light';}
	.st2{font-size:7.5829px;}
	.st3{font-family:'Gotham-Black';}
	.st4{font-size:10.6204px;}
	.st5{font-size:5.7166px;}
</style>
<g>
	<g>
		<g>
			<path class="st0" d="M80.1,33.3c0.3,0.5,0.8,0.7,1.4,0.7c0.8,0,1.4-0.8,1.4-0.8l13.8-17.7c1.1-1.2,2.3-0.2,2.3-0.2
				c1.1,1.1,0.3,2.2,0.3,2.2l-3.1,4l0,0c-0.3,0.3-0.4,0.6-0.4,1.1c0,0.4,0.1,0.7,0.4,1l0,0l3.1,3.9l9.8-12.5l-3.9-5L104.3,9
				c-0.6-0.9-2.1-1.1-2.1-1.1h-5.9c-1.6,0-2.4,1.1-2.4,1.1L77.5,30.1L80.1,33.3z"/>
			<path class="st0" d="M79.4,22.5l-3.9-5c-0.8-1.3,0.4-2.2,0.4-2.2c1.5-0.9,2.3,0.5,2.3,0.5l3.3,4.2l3.9-5l-4.4-5.7
				c-1.1-1.5-2.7-1.3-2.7-1.3h-5.3c-1.7,0-2.4,1.1-2.4,1.1l-4.7,6l9.8,12.5L79.4,22.5z"/>
			<path class="st0" d="M94.6,26.8c0,0-0.5-0.7-1.3-0.7c-0.9,0-1.3,0.6-1.3,0.6l-14,18c-1.1,1.2-2.4,0.2-2.4,0.2
				c-1.1-1.1-0.2-2.2-0.2-2.2l3.1-4l0,0c0.3-0.3,0.4-0.6,0.4-1.1c0-0.4-0.1-0.7-0.4-1l0,0l-3.1-3.9l-9.8,12.6l5.5,7l8.6,0l17.4-22.2
				L94.6,26.8z"/>
			<path class="st0" d="M95.3,37.6l4,5.1c0.9,1.3-0.2,2.2-0.2,2.2c-1.5,1-2.5-0.5-2.5-0.5l-3.3-4.2l-3.9,5l5.6,7.1l8.6,0l5.5-7
				l-9.8-12.6L95.3,37.6z"/>
			<path class="st0" d="M108.9,26.1c-2.2,0-4,1.8-4,3.9c0,2.2,1.8,3.9,4,3.9c2.2,0,4-1.8,4-3.9C112.9,27.9,111.1,26.1,108.9,26.1z
				 M108.9,32.2c-1.2,0-2.1-0.9-2.1-2.1c0-1.2,0.9-2.1,2.1-2.1s2.1,0.9,2.1,2.1C111,31.2,110.1,32.2,108.9,32.2z"/>
			<path class="st0" d="M87.3,7.9c2.2,0,4-1.8,4-3.9c0-2.2-1.8-3.9-4-3.9c-2.2,0-4,1.8-4,3.9C83.3,6.1,85.1,7.9,87.3,7.9z M87.3,1.8
				c1.2,0,2.1,0.9,2.1,2.1c0,1.2-0.9,2.1-2.1,2.1c-1.2,0-2.1-0.9-2.1-2.1C85.2,2.8,86.2,1.8,87.3,1.8z"/>
			<path class="st0" d="M69.6,30.1c0-2.2-1.8-3.9-4-3.9c-2.2,0-4,1.8-4,3.9s1.8,3.9,4,3.9C67.8,34,69.6,32.2,69.6,30.1z M63.5,30.1
				c0-1.2,0.9-2.1,2.1-2.1c1.2,0,2.1,0.9,2.1,2.1c0,1.2-0.9,2.1-2.1,2.1C64.5,32.2,63.5,31.2,63.5,30.1z"/>
			<path class="st0" d="M87.3,52.3c-2.2,0-4,1.8-4,3.9c0,2.2,1.8,3.9,4,3.9c2.2,0,4-1.8,4-3.9C91.3,54,89.5,52.3,87.3,52.3z
				 M87.3,58.3c-1.2,0-2.1-0.9-2.1-2.1s0.9-2.1,2.1-2.1c1.2,0,2.1,0.9,2.1,2.1S88.5,58.3,87.3,58.3z"/>
		</g>
		<g>
			<path class="st0" d="M44.6,5v29.4c0,3.6-1.1,6.9-3.3,9.8c-1.8,2.4-4.3,4.5-7.5,6.4c-4.9,2.9-9.8,4.2-10.9,4.5
				c-1.1-0.3-6-1.6-10.9-4.4c-3.2-1.9-5.7-4-7.5-6.4c-2.2-2.9-3.3-6.2-3.3-9.8V5H44.6 M45.7,3.9H0c0,0,0,17.8,0,30.5
				c0,16.7,22.9,21.8,22.9,21.8h0c0,0,22.9-5,22.9-21.8C45.7,21.7,45.7,3.9,45.7,3.9L45.7,3.9z"/>
			<g>
				<path class="st0" d="M28.4,13.7v-2.8h-2.9v2.6h-1.1v-2.6h-3v2.6h-1.1v-2.6h-2.9v2.8l1.4,2.5c0,0.1,0.1,0.2,0.1,0.3l0,12.8h1.4
					l0-4.6c0-1.1,1.2-2.1,2.6-2.1c1.4,0,2.6,1,2.6,2.1l0,4.6h1.4l0-4.9c0,0,0,0,0-0.1v-2.4c0,0,0,0,0,0l0-1.8c0,0,0,0,0,0v-0.8
					l0-2.9c0-0.1,0-0.2,0.1-0.3L28.4,13.7z"/>
				<path class="st0" d="M17.8,29.5l0-4.3l-0.5,0.3c-0.2,0.1-0.4,0.1-0.6,0L16,25.2c0,0,0,0,0,0.1l0,1.6c0,0.2-0.1,0.3-0.2,0.4
					c0.1,0,0.1,0.1,0.2,0.1c0.7,0.6,0.8,1.5,0.6,2.2H17.8z"/>
				<path class="st0" d="M22.9,23.7c-0.9,0-1.5,0.6-1.5,0.9l0,4.6h2.9l0-4.6C24.3,24.3,23.7,23.7,22.9,23.7z"/>
				<path class="st0" d="M5.7,29.5c-0.2-0.4-0.3-0.8-0.4-1.3c-0.1-0.9-0.1-1.7-0.1-1.7c0-0.2,0.2-0.4,0.4-0.5l1.2-0.4l-1.4-1
					c-0.1-0.1-0.2-0.3-0.2-0.5v-1.6c0-0.2,0.1-0.4,0.3-0.5l0.5-0.3v-0.5l-0.5-0.2c-0.2-0.1-0.4-0.3-0.4-0.5l0-1.9
					c0-0.3,0.2-0.6,0.6-0.6l1.7,0c0-0.5,0-1.1,0.1-1.6c0.2-0.7,0.5-1.5,0.7-1.8l-0.1-0.6c0-0.2,0-0.3,0.1-0.4
					c0.1-0.1,0.3-0.2,0.4-0.2h0.9c0.1,0,0.2,0,0.3,0.1l2.3,1.5h1.1c0.2,0,0.3,0.1,0.4,0.2s0.2,0.3,0.2,0.4l-0.1,1.8
					c0,0.2-0.1,0.3-0.2,0.4l0.7,0c0.2,0,0.3,0.1,0.4,0.2l0.3,0.3l0.2-0.2l0.4-0.9c0.1-0.2,0.3-0.3,0.5-0.3h1.5l0-0.3l-1.4-2.5
					c-0.1-0.1-0.1-0.2-0.1-0.3v-3.5c0-0.3,0.3-0.6,0.6-0.6h3.5h1.1h3h1.1H29c0.3,0,0.6,0.3,0.6,0.6v3.5c0,0.1,0,0.2-0.1,0.3L28,16.6
					l0,0.3h1.5c0.2,0,0.4,0.1,0.5,0.3l0.4,0.9l0.2,0.2l0.3-0.3c0.1-0.1,0.3-0.2,0.4-0.2l0.7,0c-0.1-0.1-0.2-0.2-0.2-0.4l-0.1-1.8
					c0-0.2,0-0.3,0.2-0.4c0.1-0.1,0.3-0.2,0.4-0.2h1.1l2.3-1.5c0.1-0.1,0.2-0.1,0.3-0.1h0.9c0.2,0,0.3,0.1,0.4,0.2
					c0.1,0.1,0.2,0.3,0.1,0.4l-0.1,0.6c0.2,0.3,0.6,1.1,0.7,1.8c0.1,0.5,0.1,1.1,0.1,1.6l1.7,0c0.3,0,0.6,0.3,0.6,0.6l0,1.9
					c0,0.2-0.1,0.4-0.4,0.5l-0.5,0.2v0.5l0.5,0.3c0.2,0.1,0.3,0.3,0.3,0.5v1.6c0,0.2-0.1,0.4-0.2,0.5l-1.4,1l1.2,0.4
					c0.2,0.1,0.4,0.3,0.4,0.5c0,0,0,0.9-0.1,1.7c-0.1,0.5-0.2,0.9-0.4,1.3h2c0,0,0,0,0,0V7.8H3.7v21.7H5.7z"/>
				<path class="st0" d="M29.8,27.4c0.1,0,0.1-0.1,0.2-0.1c-0.1-0.1-0.2-0.3-0.2-0.4l0-1.6c0,0,0,0,0-0.1l-0.6,0.4
					c-0.2,0.1-0.4,0.1-0.6,0L28,25.3l0,4.2h1.1C29,28.8,29,28,29.8,27.4z"/>
				<path class="st0" d="M37.3,41.2c-0.3,0-0.6-0.3-0.6-0.6v-3.7c0-0.3-0.2-0.6-0.4-0.9c-0.2-0.2-0.6-0.5-1.2-0.5
					c-0.9,0-1.4,0.7-1.5,1.3v3.6c0,0.1-0.1,0.3-0.2,0.4c-0.1,0.1-0.2,0.2-0.4,0.2l-3.3,0c-0.3,0-0.6-0.3-0.6-0.6v-3.7
					c0-0.3-0.2-0.6-0.4-0.9c-0.2-0.2-0.6-0.5-1.2-0.5c-0.4,0-0.7,0.1-1,0.4l2.7,14c3.9-1.7,8.5-4.5,10.9-8.9L37.3,41.2z"/>
				<path class="st0" d="M28.3,50.4l-3.9-19.7h-3.1l-3.9,19.7c0,0,0,0.1,0,0.1c2.7,1.1,4.9,1.7,5.5,1.9
					C23.5,52.1,25.7,51.6,28.3,50.4C28.3,50.4,28.3,50.4,28.3,50.4z"/>
				<path class="st0" d="M19.1,36c-0.3-0.2-0.6-0.4-1-0.4c0,0,0,0,0,0c-0.6,0-0.9,0.2-1.1,0.5c-0.3,0.3-0.4,0.6-0.4,0.9v3.7
					c0,0.3-0.3,0.6-0.6,0.6l-3.3,0c-0.1,0-0.3-0.1-0.4-0.2c-0.1-0.1-0.2-0.2-0.2-0.4V37c-0.1-0.7-0.6-1.3-1.5-1.3c0,0,0,0,0,0
					c-0.6,0-0.9,0.2-1.1,0.5c-0.3,0.3-0.4,0.6-0.4,0.9v3.7c0,0.3-0.3,0.6-0.6,0.6l-3.1,0c2.5,4.3,7,7.1,10.9,8.8L19.1,36z"/>
				<path class="st0" d="M42.1,30.7H25.6l0.8,4.1c0.4-0.2,0.8-0.3,1.2-0.3c0.7,0,1.4,0.3,2,0.8c0.5,0.5,0.8,1.1,0.8,1.7V40l2.2,0
					v-3.1c0,0,0,0,0-0.1c0.1-1.3,1.2-2.4,2.6-2.4c0.7,0,1.4,0.3,2,0.8c0.5,0.5,0.8,1.1,0.8,1.7V40l3.1,0c0.8-1.7,1.2-3.6,1.2-5.7
					L42.1,30.7C42.1,30.7,42.1,30.7,42.1,30.7z"/>
				<path class="st0" d="M8,40v-3.1c0-0.6,0.3-1.2,0.8-1.7c0.5-0.5,1.2-0.8,2-0.8c1.3,0,2.4,1,2.6,2.4c0,0,0,0,0,0.1V40l2.2,0v-3.1
					c0-0.6,0.3-1.2,0.8-1.7c0.5-0.5,1.2-0.8,2-0.8c0.4,0,0.8,0.1,1.2,0.3l0.8-4.1H3.7v3.7c0,2.1,0.5,4,1.2,5.7L8,40z"/>
				<path class="st0" d="M9.3,28.4h0.9c0.1,0.1,0.1,0.2,0.1,0.4c0,0.1,0,0.2,0,0.2c0,0.2,0,0.4-0.1,0.6H7.1
					c-0.5-0.3-0.7-1.6-0.7-2.6l1.4-0.4C8,26.4,8.2,26.2,8.2,26v-0.5c0-0.2-0.1-0.4-0.2-0.5l-1.6-1.1V23l0.5-0.3
					c0.2-0.1,0.3-0.3,0.3-0.5v-1.3c0-0.2-0.1-0.4-0.4-0.5l-0.5-0.2l0-0.9l1.5,0l0.7,1.1l0,1.6l-0.5,1.5C8,23.7,8,23.9,8.2,24
					c0.1,0.1,0.3,0.2,0.5,0.2H9c0.3,0,0.5-0.2,0.6-0.5c0-0.2,0.2-1,0.3-1.3c0.1-0.3,0.5-0.8,0.8-1.1c0.2-0.2,0.2-0.5,0-0.7l-1.9-2.2
					c0-0.3-0.1-1.1,0-1.7c0.1-0.6,0.6-1.4,0.7-1.6c0.1-0.1,0.1-0.2,0.1-0.4l0-0.2h0.1l2.3,1.5c0.1,0.1,0.2,0.1,0.3,0.1h0.6l0,0.8
					L12,17.2c-0.2,0.1-0.4,0.3-0.4,0.5l0,0.6c0,0.3,0.3,0.6,0.6,0.6l1.9,0l0.5,0.5c0.2,0.2,0.5,0.2,0.7,0.1c0,0,0.9-0.7,0.9-0.8
					l0.3-0.7h1.1v1.3l0,0.7c0,0-2.1,0.7-2.2,0.8c-0.1,0.1-0.2,0.7-0.2,0.9c0,0.2,0,0.2,0.2,0.4c0,0,0.6,0.5,0.8,0.5L17,22l0.8,0.1
					l0,1.9L17,24.4l-2.4-1.6c-0.2-0.2-0.6-0.1-0.8,0.1l-0.4,0.5c-0.2,0.2-0.2,0.6,0.1,0.8l1.4,1.3l0,1l-1.4,0.6
					c-0.2,0.1-0.3,0.3-0.3,0.5v0.2c0,0.3,0.3,0.6,0.6,0.6h1.6c0.3,0.3,0.2,0.8,0.1,1.2h-3.8c-0.1-0.1-0.2-0.4-0.2-0.6
					c0-0.1,0-0.1,0-0.2c0-0.4,0-0.7,0.1-0.9l0.9-1.1c0.1-0.1,0.1-0.2,0.1-0.3l0-0.5c0-0.2-0.1-0.4-0.2-0.5s-0.4-0.1-0.5-0.1
					l-1.4,0.6c-0.2,0.1-0.3,0.2-0.3,0.4L10,26.8l-0.8,0.2c-0.2,0.1-0.4,0.3-0.4,0.5v0.2C8.7,28.1,9,28.4,9.3,28.4z"/>
				<path class="st0" d="M36.5,28.4h-0.9c-0.1,0.1-0.1,0.2-0.1,0.4c0,0.1,0,0.2,0,0.2c0,0.2,0,0.4,0.1,0.6h3.2
					c0.5-0.3,0.7-1.6,0.7-2.6L38,26.5c-0.2-0.1-0.4-0.3-0.4-0.5v-0.5c0-0.2,0.1-0.4,0.2-0.5l1.6-1.1V23l-0.5-0.3
					c-0.2-0.1-0.3-0.3-0.3-0.5v-1.3c0-0.2,0.1-0.4,0.4-0.5l0.5-0.2l0-0.9l-1.5,0l-0.7,1.1l0,1.6l0.5,1.5c0.1,0.2,0,0.4-0.1,0.5
					c-0.1,0.1-0.3,0.2-0.5,0.2h-0.4c-0.3,0-0.5-0.2-0.6-0.5c0-0.2-0.2-1-0.3-1.3c-0.1-0.3-0.5-0.8-0.8-1.1c-0.2-0.2-0.2-0.5,0-0.7
					l1.9-2.2c0-0.3,0.1-1.1,0-1.7c-0.1-0.6-0.6-1.4-0.7-1.6c-0.1-0.1-0.1-0.2-0.1-0.4l0-0.2h-0.1L33.9,16c-0.1,0.1-0.2,0.1-0.3,0.1
					H33l0,0.8l0.7,0.3c0.2,0.1,0.4,0.3,0.4,0.5l0,0.6c0,0.3-0.3,0.6-0.6,0.6l-1.9,0l-0.5,0.5c-0.2,0.2-0.5,0.2-0.7,0.1
					c0,0-0.9-0.7-0.9-0.8L29.1,18H28v1.3l0,0.7c0,0,2.1,0.7,2.2,0.8c0.1,0.1,0.2,0.7,0.2,0.9c0,0.2,0,0.2-0.2,0.4
					c0,0-0.6,0.5-0.8,0.5L28.8,22L28,22.1l0,1.9l0.8,0.5l2.4-1.6c0.2-0.2,0.6-0.1,0.8,0.1l0.4,0.5c0.2,0.2,0.2,0.6-0.1,0.8l-1.4,1.3
					l0,1l1.4,0.6c0.2,0.1,0.3,0.3,0.3,0.5v0.2c0,0.3-0.3,0.6-0.6,0.6h-1.6c-0.3,0.3-0.2,0.8-0.1,1.2h3.8c0.1-0.1,0.2-0.4,0.2-0.6
					c0-0.1,0-0.1,0-0.2c0-0.4,0-0.7-0.1-0.9l-0.9-1.1c-0.1-0.1-0.1-0.2-0.1-0.3l0-0.5c0-0.2,0.1-0.4,0.2-0.5s0.4-0.1,0.5-0.1
					l1.4,0.6c0.2,0.1,0.3,0.2,0.3,0.4l0.1,0.6l0.8,0.2c0.2,0.1,0.4,0.3,0.4,0.5v0.2C37,28.1,36.8,28.4,36.5,28.4z"/>
			</g>
		</g>
		<g>
			<g>
				<g>
					<g>
						<path class="st0" d="M124.9,23.4L124.9,23.4c0-2.2,1.6-4.1,3.9-4.1c1.3,0,2.1,0.4,2.9,1l-0.6,0.7c-0.6-0.5-1.3-0.9-2.4-0.9
							c-1.7,0-3,1.5-3,3.2v0c0,1.9,1.2,3.2,3.1,3.2c0.9,0,1.7-0.3,2.2-0.8v-1.9h-2.4v-0.8h3.2v3.1c-0.7,0.6-1.8,1.2-3.1,1.2
							C126.5,27.4,124.9,25.6,124.9,23.4z"/>
						<path class="st0" d="M134.9,23.4L134.9,23.4c0-2.2,1.6-4.1,4-4.1c2.4,0,4,1.9,4,4v0c0,2.1-1.6,4-4,4
							C136.5,27.4,134.9,25.5,134.9,23.4z M142,23.4L142,23.4c0-1.8-1.3-3.2-3.1-3.2c-1.8,0-3.1,1.4-3.1,3.2v0
							c0,1.8,1.3,3.2,3.1,3.2C140.7,26.6,142,25.2,142,23.4z"/>
						<path class="st0" d="M146,19.5h3.3c0.9,0,1.6,0.3,2,0.7c0.3,0.3,0.5,0.7,0.5,1.2v0c0,1-0.6,1.5-1.2,1.8
							c0.9,0.3,1.7,0.8,1.7,1.9v0c0,1.3-1.1,2.1-2.8,2.1H146V19.5z M151,21.5c0-0.8-0.6-1.3-1.7-1.3h-2.4v2.7h2.3
							C150.2,22.9,151,22.5,151,21.5L151,21.5z M149.3,23.7h-2.5v2.8h2.6c1.2,0,1.9-0.5,1.9-1.4v0C151.4,24.2,150.7,23.7,149.3,23.7
							z"/>
						<path class="st0" d="M155.5,19.5h0.9v7.8h-0.9V19.5z"/>
						<path class="st0" d="M159.9,19.5h5.6v0.8h-4.8v2.7h4.3v0.8h-4.3v2.7h4.8v0.8h-5.7V19.5z"/>
						<path class="st0" d="M168.5,19.5h3.4c1,0,1.7,0.3,2.2,0.8c0.4,0.4,0.6,0.9,0.6,1.5v0c0,1.3-0.9,2-2.1,2.3l2.4,3.2h-1.1l-2.3-3
							h-2.2v3h-0.9V19.5z M171.8,23.4c1.2,0,2-0.6,2-1.6v0c0-1-0.7-1.5-2-1.5h-2.4v3.2H171.8z"/>
						<path class="st0" d="M177.8,19.5h0.8l4.9,6.2v-6.2h0.9v7.8h-0.7l-5-6.4v6.4h-0.9V19.5z"/>
						<path class="st0" d="M187.6,23.4L187.6,23.4c0-2.2,1.6-4.1,4-4.1c2.4,0,4,1.9,4,4v0c0,2.1-1.6,4-4,4
							C189.2,27.4,187.6,25.5,187.6,23.4z M194.6,23.4L194.6,23.4c0-1.8-1.3-3.2-3.1-3.2c-1.8,0-3.1,1.4-3.1,3.2v0
							c0,1.8,1.3,3.2,3.1,3.2C193.4,26.6,194.6,25.2,194.6,23.4z"/>
						<path class="st0" d="M202.7,19.5h2.7c2.4,0,4.1,1.7,4.1,3.9v0c0,2.2-1.7,3.9-4.1,3.9h-2.7V19.5z M203.6,20.3v6.2h1.8
							c2,0,3.2-1.3,3.2-3.1v0c0-1.7-1.3-3.1-3.2-3.1H203.6z"/>
						<path class="st0" d="M212.4,19.5h5.6v0.8h-4.8v2.7h4.3v0.8h-4.3v2.7h4.8v0.8h-5.7V19.5z"/>
						<path class="st0" d="M225.1,19.5h0.9v7h4.4v0.8h-5.3V19.5z"/>
						<path class="st0" d="M235.7,19.4h0.8l3.6,7.9h-0.9l-0.9-2.1H234l-0.9,2.1h-0.9L235.7,19.4z M237.9,24.4l-1.8-4l-1.8,4H237.9z"
							/>
						<path class="st0" d="M124.8,36.8L124.8,36.8c0-2.2,1.7-4.1,4.1-4.1c1.5,0,2.3,0.5,3.1,1.2l-1.1,1.3c-0.6-0.5-1.2-0.9-2-0.9
							c-1.3,0-2.3,1.1-2.3,2.4v0c0,1.3,0.9,2.4,2.3,2.4c0.9,0,1.4-0.4,2-0.9l1.1,1.1c-0.8,0.9-1.7,1.4-3.2,1.4
							C126.5,40.8,124.8,39,124.8,36.8z"/>
						<path class="st0" d="M133.4,32.8h1.7v7.8h-1.7V32.8z"/>
						<path class="st0" d="M137.1,37.3v-4.5h1.7v4.4c0,1.3,0.6,1.9,1.7,1.9c1,0,1.7-0.6,1.7-1.9v-4.5h1.7v4.4c0,2.4-1.3,3.5-3.4,3.5
							C138.4,40.8,137.1,39.6,137.1,37.3z"/>
						<path class="st0" d="M145.8,32.8h3c2.5,0,4.1,1.7,4.1,3.9v0c0,2.2-1.7,3.9-4.1,3.9h-3V32.8z M148.9,39.1
							c1.4,0,2.3-0.9,2.3-2.3v0c0-1.4-0.9-2.3-2.3-2.3h-1.3v4.7H148.9z"/>
						<path class="st0" d="M156.8,32.8h1.6l3.3,7.9h-1.8l-0.7-1.7h-3.3l-0.7,1.7h-1.7L156.8,32.8z M158.6,37.4l-1-2.5l-1,2.5H158.6z
							"/>
						<path class="st0" d="M163,32.8h3c2.5,0,4.1,1.7,4.1,3.9v0c0,2.2-1.7,3.9-4.1,3.9h-3V32.8z M166,39.1c1.4,0,2.3-0.9,2.3-2.3v0
							c0-1.4-0.9-2.3-2.3-2.3h-1.3v4.7H166z"/>
						<path class="st0" d="M175.1,32.8h3c2.5,0,4.1,1.7,4.1,3.9v0c0,2.2-1.7,3.9-4.1,3.9h-3V32.8z M178.2,39.1
							c1.4,0,2.3-0.9,2.3-2.3v0c0-1.4-0.9-2.3-2.3-2.3h-1.3v4.7H178.2z"/>
						<path class="st0" d="M183.9,32.8h5.9v1.5h-4.2v1.6h3.7v1.5h-3.7v1.6h4.2v1.5h-5.9V32.8z"/>
						<path class="st0" d="M194.8,32.8h1.8l2,3.3l2-3.3h1.8v7.8h-1.7v-5.1l-2.2,3.3h0l-2.2-3.3v5.1h-1.7V32.8z"/>
						<path class="st0" d="M204.7,32.8h5.9v1.5h-4.2v1.6h3.7v1.5h-3.7v1.6h4.2v1.5h-5.9V32.8z M207.9,30.3l1.5,0.6l-1.4,1.3h-1.3
							L207.9,30.3z"/>
						<path class="st0" d="M214.4,36.7l-2.6-3.8h2l1.6,2.5l1.6-2.5h1.9l-2.6,3.8l2.7,4h-2l-1.7-2.7l-1.8,2.7h-1.9L214.4,36.7z"/>
						<path class="st0" d="M220.5,32.8h1.7v7.8h-1.7V32.8z"/>
						<path class="st0" d="M223.9,36.8L223.9,36.8c0-2.2,1.7-4.1,4.1-4.1c1.5,0,2.3,0.5,3.1,1.2l-1.1,1.3c-0.6-0.5-1.2-0.9-2-0.9
							c-1.3,0-2.3,1.1-2.3,2.4v0c0,1.3,0.9,2.4,2.3,2.4c0.9,0,1.4-0.4,2-0.9l1.1,1.1c-0.8,0.9-1.7,1.4-3.2,1.4
							C225.6,40.8,223.9,39,223.9,36.8z"/>
						<path class="st0" d="M231.9,36.8L231.9,36.8c0-2.2,1.7-4.1,4.2-4.1c2.4,0,4.1,1.8,4.1,4v0c0,2.2-1.7,4-4.2,4
							C233.6,40.8,231.9,39,231.9,36.8z M238.4,36.8L238.4,36.8c0-1.4-1-2.5-2.4-2.5c-1.4,0-2.3,1.1-2.3,2.4v0c0,1.3,1,2.4,2.4,2.4
							C237.4,39.2,238.4,38.1,238.4,36.8z"/>
					</g>
				</g>
			</g>
		</g>
	</g>
	<g>
		<text transform="matrix(1 0 0 1 261.3106 34.6953)"><tspan x="0" y="0" class="st0 st1 st2">SECRETARÍA DE EDUCACIÓN, CIENCIA,</tspan><tspan x="0" y="9.1" class="st0 st1 st2">TECNOLOGÍA E INNOVACIÓN</tspan></text>
	</g>
	<g>
		<text transform="matrix(1 0 0 1 261.3106 22.4267)" class="st0 st3 st4">SECTEI</text>
	</g>
	<path class="st0" d="M252.9,30.1"/>
	<path class="st0" d="M252.6,30.1"/>
	<path class="st0" d="M454.3,22.1c-1.1-1.1-2.6-1.7-4.2-1.5l-1.2,0l0-1.3c0-0.1,0-0.2,0-0.2l0-0.5c-0.1-1.2-0.6-2.4-1.5-3.3
		c-2.1-2.1-5.4-2.1-7.5,0c-0.6,0.6-1,1.2-1.2,1.9c-0.4,0.8-0.6,1.7-0.6,2.8c0,1.1,0,2.5,0,3.8c0,1.4,0,2.8,0,4c-0.2,0-0.5,0-0.7,0
		c-1,0-1.9,0.2-2.8,0.6c-0.7,0.3-1.3,0.7-1.9,1.2c-2.1,2.1-2.1,5.4,0,7.5c1.1,1.1,2.6,1.7,4.2,1.5l1.2,0l0,1.3c0,0.1,0,0.2,0,0.2
		l0,0.5c0.1,1.2,0.6,2.4,1.5,3.3c2.1,2.1,5.4,2.1,7.5,0c0.6-0.6,1-1.2,1.2-1.9c0.4-0.8,0.6-1.7,0.6-2.8c0-2.3,0-5.4,0-7.8
		c0.2,0,0.5,0,0.7,0c1,0,1.9-0.2,2.8-0.6c0.7-0.3,1.3-0.7,1.9-1.2C456.4,27.6,456.4,24.2,454.3,22.1z M448.8,24.2l1.7-0.1
		c0.4,0,0.9,0.2,1.2,0.5c0.7,0.7,0.7,1.8,0,2.5c-0.7,0.7-1.8,0.7-2.5,0c-0.3-0.3-0.5-0.8-0.5-1.2L448.8,24.2z M444.9,17.8
		c0.3,0.3,0.5,0.7,0.5,1.2l0,1.7l-1.7,0c-0.5,0-0.9-0.2-1.2-0.5c-0.7-0.7-0.7-1.8,0-2.5C443.1,17.1,444.2,17.1,444.9,17.8z
		 M441.8,24c0.7,0.3,1.5,0.4,2.3,0.4l1.2,0c0,0-0.1,1.1,0,2c0.1,0.5,0.2,1,0.3,1.5c-1.2,0-2.5,0-3.8,0
		C441.8,27.2,441.8,25.7,441.8,24z M438.3,35l-1.7,0.1c-0.4,0-0.9-0.2-1.2-0.5c-0.7-0.7-0.7-1.8,0-2.5c0.7-0.7,1.8-0.7,2.5,0
		c0.3,0.3,0.5,0.8,0.5,1.2L438.3,35z M442.2,41.4c-0.3-0.3-0.5-0.7-0.5-1.2l0-1.7l1.7,0c0.5,0,0.9,0.2,1.2,0.5
		c0.7,0.7,0.7,1.8,0,2.5C444,42,442.9,42,442.2,41.4z M445.3,35.2c-0.7-0.3-1.5-0.4-2.3-0.4l-1.2,0c0,0,0.1-1.1,0-2
		c-0.1-0.5-0.2-1-0.3-1.5c1.2,0,2.5,0,3.8,0C445.3,32,445.3,33.4,445.3,35.2z"/>
	<text transform="matrix(1 0 0 1 461.3204 35.168)"><tspan x="0" y="0" class="st0 st1 st5">INSTITUTO</tspan><tspan x="0" y="6.9" class="st0 st1 st5">ROSARIO CASTELLANOS</tspan></text>
	<rect x="253.2" y="7.4" class="st0" width="0.7" height="45.4"/>
	<rect x="423.4" y="14.1" class="st0" width="0.5" height="33.1"/>
	<text transform="matrix(1 0 0 1 460.5557 27.6719)" class="st0 st3 st4">IRC</text>
</g>
</svg>
